# xmcd
#
# Track frame offsets:
#	150
#	20459
#	37134
#	56865
#	71200
#	92887
#	113279
#	139724
#	152549
#	176530
#	198242
#	218583
#
# Disc length: 3107 seconds
#
# Revision: 0
# Processed by: cddbd v1.5.2PL0 Copyright (c) Steve Scherf et al.
# Submitted via: EZCDAudioConverter 2.2.0.1
#
DISCID=a30c210c
DTITLE=Claude 'Butch' Morgan - Dry
DYEAR=2013
DGENRE=Country
TTITLE0=Somewhere in Texas
TTITLE1=Ol' Black Crow
TTITLE2=There's Always Love
TTITLE3=I Don't Remember Growing Up
TTITLE4=Kingdom
TTITLE5=Eddie
TTITLE6=Dry
TTITLE7=Cowboy and His Coffee
TTITLE8=Western World
TTITLE9=More in Texas
TTITLE10=Another Late Night
TTITLE11=Blubberball
EXTD=
EXTT0=
EXTT1=
EXTT2=
EXTT3=
EXTT4=
EXTT5=
EXTT6=
EXTT7=
EXTT8=
EXTT9=
EXTT10=
EXTT11=
PLAYORDER=
